<svg t="1712461073408" class="icon" viewBox="0 0 1024 1024" version="1.1" xmlns="http://www.w3.org/2000/svg" p-id="88448" width="300" height="300"><path d="M885.76 182.613333H138.24c-44.373333 0-81.92 37.546667-81.92 83.626667v491.52c0 46.08 37.546667 83.626667 81.92 83.626667h745.813333c44.373333 0 81.92-37.546667 81.92-83.626667V266.24c1.706667-46.08-35.84-83.626667-80.213333-83.626667z m47.786667 575.146667c0 27.306667-22.186667 49.493333-49.493334 49.493333H138.24c-27.306667 0-49.493333-22.186667-49.493333-49.493333V266.24c0-27.306667 22.186667-49.493333 49.493333-49.493333H733.866667v233.813333l71.68-54.613333 71.68 54.613333V216.746667h8.533333c27.306667 0 49.493333 22.186667 49.493333 49.493333v491.52z" fill="#1989FA" p-id="88449"></path><path d="M271.36 464.213333l-61.44 32.426667c-5.12 1.706667-10.24-1.706667-10.24-6.826667l11.946667-68.266666c0-1.706667 0-5.12-1.706667-5.12l-49.493333-47.786667c-3.413333-3.413333-1.706667-10.24 3.413333-11.946667l68.266667-10.24c1.706667 0 3.413333-1.706667 5.12-3.413333l30.72-61.44c1.706667-5.12 8.533333-5.12 11.946666 0l30.72 61.44c1.706667 1.706667 3.413333 3.413333 5.12 3.413333l68.266667 10.24c5.12 0 6.826667 6.826667 3.413333 11.946667l-49.493333 47.786667c-1.706667 1.706667-1.706667 3.413333-1.706667 5.12l11.946667 68.266666c1.706667 5.12-5.12 10.24-10.24 6.826667l-61.44-32.426667h-5.12zM779.946667 634.88H167.253333c-5.12 0-10.24-5.12-10.24-10.24v-25.6c0-5.12 5.12-10.24 10.24-10.24h610.986667c5.12 0 10.24 5.12 10.24 10.24v25.6c1.706667 5.12-3.413333 10.24-8.533333 10.24zM551.253333 716.8H167.253333c-5.12 0-10.24-5.12-10.24-10.24v-15.36c0-5.12 5.12-10.24 10.24-10.24h384c5.12 0 10.24 5.12 10.24 10.24v15.36c0 5.12-5.12 10.24-10.24 10.24z" fill="#1989FA" p-id="88450"></path></svg>
