<svg t="1712459667937" class="icon" viewBox="0 0 1024 1024" version="1.1" xmlns="http://www.w3.org/2000/svg" p-id="57711" width="300" height="300"><path d="M358.4 682.8288h-38.4V665.6a12.8 12.8 0 0 0-12.8-12.8h-25.6a12.8 12.8 0 0 0-12.8 12.8v17.2288h-12.8c-140.7744 0-256-113.0752-256-251.2384 0-129.856 98.1248-234.56 230.4-251.2512C281.6 79.8336 388.224 12.8 512 12.8c157.8496 0 285.8496 108.8768 315.7248 251.2384C934.4 272.4096 1024 364.544 1024 473.3824c0 117.2864-93.8752 209.4464-213.376 209.4464H409.6V665.6a12.8 12.8 0 0 0-12.8-12.8h-25.6a12.8 12.8 0 0 0-12.8 12.8v17.2288zM281.6 460.8a12.8 12.8 0 0 0-12.8 12.8v38.4a12.8 12.8 0 0 0 12.8 12.8h25.6a12.8 12.8 0 0 0 12.8-12.8v-38.4a12.8 12.8 0 0 0-12.8-12.8h-25.6z m89.6 0a12.8 12.8 0 0 0-12.8 12.8v38.4a12.8 12.8 0 0 0 12.8 12.8h25.6a12.8 12.8 0 0 0 12.8-12.8v-38.4a12.8 12.8 0 0 0-12.8-12.8h-25.6z" fill="#1989FA" opacity=".3" p-id="57712"></path><path d="M268.8 422.4h486.4a51.2 51.2 0 0 1 51.2 51.2v38.4a51.2 51.2 0 0 1-51.2 51.2H268.8a51.2 51.2 0 0 1-51.2-51.2v-38.4a51.2 51.2 0 0 1 51.2-51.2z m0 192h486.4a51.2 51.2 0 0 1 51.2 51.2v38.4a51.2 51.2 0 0 1-51.2 51.2H268.8a51.2 51.2 0 0 1-51.2-51.2v-38.4a51.2 51.2 0 0 1 51.2-51.2z m0 192h486.4a51.2 51.2 0 0 1 51.2 51.2v38.4a51.2 51.2 0 0 1-51.2 51.2H268.8a51.2 51.2 0 0 1-51.2-51.2v-38.4a51.2 51.2 0 0 1 51.2-51.2z m12.8-345.6a12.8 12.8 0 0 0-12.8 12.8v38.4a12.8 12.8 0 0 0 12.8 12.8h25.6a12.8 12.8 0 0 0 12.8-12.8v-38.4a12.8 12.8 0 0 0-12.8-12.8h-25.6z m89.6 0a12.8 12.8 0 0 0-12.8 12.8v38.4a12.8 12.8 0 0 0 12.8 12.8h25.6a12.8 12.8 0 0 0 12.8-12.8v-38.4a12.8 12.8 0 0 0-12.8-12.8h-25.6z m-89.6 192a12.8 12.8 0 0 0-12.8 12.8v38.4a12.8 12.8 0 0 0 12.8 12.8h25.6a12.8 12.8 0 0 0 12.8-12.8v-38.4a12.8 12.8 0 0 0-12.8-12.8h-25.6z m0 192a12.8 12.8 0 0 0-12.8 12.8v38.4a12.8 12.8 0 0 0 12.8 12.8h25.6a12.8 12.8 0 0 0 12.8-12.8v-38.4a12.8 12.8 0 0 0-12.8-12.8h-25.6z m89.6-192a12.8 12.8 0 0 0-12.8 12.8v38.4a12.8 12.8 0 0 0 12.8 12.8h25.6a12.8 12.8 0 0 0 12.8-12.8v-38.4a12.8 12.8 0 0 0-12.8-12.8h-25.6z m0 192a12.8 12.8 0 0 0-12.8 12.8v38.4a12.8 12.8 0 0 0 12.8 12.8h25.6a12.8 12.8 0 0 0 12.8-12.8v-38.4a12.8 12.8 0 0 0-12.8-12.8h-25.6z" fill="#1989FA" p-id="57713"></path></svg>
