<svg t="1677722902625" class="icon" viewBox="0 0 1024 1024" version="1.1"
  xmlns="http://www.w3.org/2000/svg" p-id="9056" width="300" height="300">
  <path d="M85.12 0h853.76C985.92 0 1024 38.08 1024 85.12v853.76A85.12 85.12 0 0 1 938.88 1024H85.12A85.12 85.12 0 0 1 0 938.88V85.12C0 38.08 38.08 0 85.12 0z" fill="#02beea" opacity=".12" p-id="9057"></path>
  <path d="M914.304 621.696h-64v98.88a146.24 146.24 0 1 1-91.456 0V502.848a45.696 45.696 0 0 1 91.456 0v27.456h64a45.696 45.696 0 1 1 0 91.392z m-109.76 192a45.696 45.696 0 1 0 0 91.456 45.696 45.696 0 0 0 0-91.456z m0-403.84V396.16c-4.672 6.272-10.24 11.904-16.512 16.64-7.04 1.792-13.696 4.416-20.032 7.808l-2.944 7.808c-42.432 24.832-125.696 54.784-280.512 54.784-263.808 0-320-87.04-320-87.04V493.44c0 62.784 138.24 113.728 320 113.728 91.2 0 171.456-12.8 228.736-33.472a1413.76 1413.76 0 0 0-0.576 98.112c-48.768 17.024-121.472 31.296-228.16 31.296-263.808 0-320-87.168-320-87.168v97.472c0 62.848 138.24 113.728 320 113.728 41.088 0.128 82.112-2.688 122.816-8.384a1745.28 1745.28 0 0 0 3.008 96.448c-41.664 5.568-83.712 8.32-125.824 8.256-235.648 0-409.6-81.472-420.032-183.808H64V247.296C64 140.992 242.176 64 484.544 64c242.432 0 420.608 76.992 420.608 183.296v237.248c-30.4-65.92-71.296-76.928-100.608-74.688zM731.008 200.32a23.68 23.68 0 0 1-6.72-2.752c-57.856-23.232-142.528-37.76-239.744-37.76-97.152 0-181.824 14.528-239.68 37.76a23.68 23.68 0 0 1-6.72 2.752c-46.272 19.84-73.6 45.376-73.6 73.216 0 62.848 138.24 113.728 320 113.728s320-50.88 320-113.728c0-27.84-27.264-53.376-73.536-73.216z" fill="#02beea" p-id="9058"></path>
</svg>