<svg t="1677722551748" class="icon" viewBox="0 0 1024 1024" version="1.1"
  xmlns="http://www.w3.org/2000/svg" p-id="7194" width="300" height="300">
  <path d="M998.4 460.8L896 358.4V217.6c0-44.8-32-76.8-76.8-76.8h-108.8c-19.2 0-38.4-6.4-51.2-25.6L582.4 38.4C550.4 6.4 505.6 6.4 473.6 38.4L396.8 115.2c-19.2 12.8-38.4 25.6-57.6 25.6H230.4c-44.8 0-76.8 32-76.8 76.8v108.8c0 19.2-6.4 38.4-25.6 51.2L51.2 460.8c-32 32-32 76.8 0 108.8L128 646.4c12.8 12.8 25.6 32 25.6 51.2v108.8c0 44.8 32 76.8 76.8 76.8h108.8c19.2 0 38.4 6.4 51.2 25.6l76.8 76.8c32 32 76.8 32 108.8 0l76.8-76.8c12.8-12.8 32-25.6 51.2-25.6h108.8c44.8 0 76.8-32 76.8-76.8v-108.8c0-19.2 6.4-38.4 25.6-51.2l76.8-76.8c38.4-32 38.4-83.2 6.4-108.8z m-473.6 256l-192-409.6h96l96 211.2 96-211.2h96l-192 409.6z" fill="#02beea" p-id="7195"></path>
</svg>