<svg t="1677723341442" class="icon" viewBox="0 0 1024 1024" version="1.1"
  xmlns="http://www.w3.org/2000/svg" p-id="32244" width="300" height="300">
  <path d="M796.9 832h-44.5l-14.3-43.9h-69.6l-14 43.9h-44.2l70-191.4h47.9L796.9 832z m-68.4-75.4l-21.7-66.4c-1.4-4.2-2.4-9.8-3-16.7h-1.1c-0.5 5.6-1.6 11-3.3 16.2l-21.9 66.9h51zM960 766.6h-51.6v51.7h-25.9v-51.7h-51.9v-26.1h51.9v-51.9h25.9v51.9H960v26.1z" p-id="32245" fill="#02beea"></path>
  <path d="M671.8 896H160c-17.7 0-32-14.3-32-32V160c0-17.7 14.3-32 32-32h383.9v160c0 35.3 28.6 64 64 64h159.9v192c0 17.7 14.3 32 32 32s32-14.3 32-32V270.2c0-8.5-3.3-16.6-9.3-22.6L649.2 73.4c-6-6-14.2-9.4-22.7-9.4H128c-35.3 0-64 28.7-64 64v768c0 35.3 28.6 64 64 64h543.9c17.7 0 32-14.3 32-32-0.1-17.7-14.4-32-32.1-32z m-32-608c-17.7 0-32-14.3-32-32V128l159.9 160H639.8z" p-id="32246" fill="#02beea"></path>
  <path d="M543.8 672H223c-17.7 0-32 14.3-32 32s14.3 32 32 32h320.9c17.7 0 32-14.3 32-32-0.1-17.7-14.4-32-32.1-32zM606.8 480H223c-17.7 0-32 14.3-32 32s14.3 32 32 32h383.9c17.7 0 32-14.3 32-32-0.1-17.7-14.4-32-32.1-32zM223 352h191.9c17.7 0 32-14.3 32-32s-14.3-32-32-32H223c-17.7 0-32 14.3-32 32s14.3 32 32 32z" p-id="32247" fill="#02beea"></path>
</svg>